# xmcd
#
# Track frame offsets:
#	150
#	13543
#	28313
#	40604
#	53043
#	66372
#	81199
#	93747
#	106094
#	120654
#	134143
#	148742
#	163488
#	178186
#	192493
#
# Disc length: 2755 seconds
#
# Revision: 1
# Processed by: cddbd v1.5.2PL0 Copyright (c) Steve Scherf et al.
# Submitted via: audiograbber 1.83.01
#
DISCID=e00ac10f
DTITLE=Zarah Leander (Der Wind...) CD 4 - Der Wind Hat Mir Ein Lied Erzählt - C
DTITLE=D 4
DYEAR=2004
DGENRE=Oldies
TTITLE0=Wann wirst du mich fragen
TTITLE1=En leende lögn
TTITLE2=Längtan
TTITLE3=Reite, kleiner Reiter
TTITLE4=Le vent m'a dit une chanson
TTITLE5=Far jag lämna nagra blommor
TTITLE6=Mi luti lo
TTITLE7=Du kannst es nicht wissen
TTITLE8=Pa cafe zigan i Budapest
TTITLE9=Du darfst mir nie mehr rote Rosen schenken
TTITLE10=Om vär herre vill
TTITLE11=Wenn der Herrgott will
TTITLE12=Det började med ett glas champagne
TTITLE13=Zarah sjunger I
TTITLE14=Zarah sjunger II
EXTD=
EXTT0=
EXTT1=
EXTT2=
EXTT3=
EXTT4=
EXTT5=
EXTT6=
EXTT7=
EXTT8=
EXTT9=
EXTT10=
EXTT11=
EXTT12=
EXTT13=
EXTT14=
PLAYORDER=
